<svg width="16" height="16" viewBox="0 0 16 16" fill="none" xmlns="http://www.w3.org/2000/svg">
<path fill-rule="evenodd" clip-rule="evenodd" d="M3.50366 14H5.35034L6.8125 9.88074H12.6948L13.9324 13.3673C12.4685 14.9843 10.3528 16 8 16C3.58179 16 0 12.4183 0 8C0 3.58167 3.58179 0 8 0C8.21387 0 8.42554 0.00830078 8.63501 0.0247803L3.50366 14ZM11.0903 0.618774L15.1323 11.6272C15.687 10.5385 16 9.30579 16 8C16 4.67712 13.9741 1.82764 11.0903 0.618774ZM12.1401 8.31824L9.81055 1.75574H9.69678L7.36719 8.31824H12.1401Z" fill="white"/>
</svg>
