<svg width="16" height="16" viewBox="0 0 16 16" fill="none" xmlns="http://www.w3.org/2000/svg">
<path fill-rule="evenodd" clip-rule="evenodd" d="M3.50366 14H5.35025L6.81256 9.88073H12.6948L13.9324 13.3672C12.4686 14.9842 10.3529 16 8 16C3.58172 16 0 12.4183 0 8C0 3.58172 3.58172 0 8 0C8.21379 0 8.42562 0.00838603 8.63518 0.0248471L3.50366 14ZM11.0902 0.61867L15.1324 11.6272C15.6872 10.5384 16 9.30575 16 8C16 4.67715 13.9742 1.82747 11.0902 0.61867ZM12.1401 8.31823L9.81048 1.75573H9.69684L7.36723 8.31823H12.1401Z" fill="#242728"/>
</svg>
